<svg width="24" height="24" viewBox="0 0 24 24" fill="none" xmlns="http://www.w3.org/2000/svg">
<path d="M6.59961 11.3984C6.59961 8.67216 6.59961 7.30907 7.44314 6.46215C8.28667 5.61523 9.64432 5.61523 12.3596 5.61523H15.2396C17.9549 5.61523 19.3125 5.61523 20.1561 6.46215C20.9996 7.30907 20.9996 8.67217 20.9996 11.3984V16.2177C20.9996 18.9439 20.9996 20.307 20.1561 21.1539C19.3125 22.0008 17.9549 22.0008 15.2396 22.0008H12.3596C9.64432 22.0008 8.28667 22.0008 7.44314 21.1539C6.59961 20.307 6.59961 18.9439 6.59961 16.2177V11.3984Z" fill="#216BF4"/>
<path opacity="0.5" d="M4.17157 3.17157C3 4.34315 3 6.22876 3 10V12C3 15.7712 3 17.6569 4.17157 18.8284C4.78913 19.446 5.6051 19.738 6.79105 19.8761C6.59961 19.0353 6.59961 17.8796 6.59961 16.2167V11.3974C6.59961 8.6712 6.59961 7.3081 7.44314 6.46118C8.28667 5.61426 9.64432 5.61426 12.3596 5.61426H15.2396C16.8915 5.61426 18.0409 5.61426 18.8777 5.80494C18.7403 4.61146 18.4484 3.79154 17.8284 3.17157C16.6569 2 14.7712 2 11 2C7.22876 2 5.34315 2 4.17157 3.17157Z" fill="#216BF4"/>
</svg>
