<svg width="16" height="16" viewBox="0 0 16 16" fill="none" xmlns="http://www.w3.org/2000/svg">
<path d="M2 4.25797C2 3.935 2.23025 3.67318 2.51429 3.67318L4.29045 3.67287C4.64335 3.66269 4.95468 3.40754 5.07476 3.03007C5.07792 3.02014 5.08155 3.0079 5.09457 2.96348L5.1711 2.70236C5.21793 2.54226 5.25873 2.40277 5.31583 2.2781C5.54139 1.78556 5.95872 1.44353 6.44098 1.35597C6.56305 1.3338 6.69233 1.33389 6.84073 1.334H9.1594C9.3078 1.33389 9.43707 1.3338 9.55913 1.35597C10.0414 1.44353 10.4587 1.78556 10.6843 2.2781C10.7414 2.40277 10.7822 2.54226 10.829 2.70236L10.9055 2.96348C10.9185 3.0079 10.9222 3.02014 10.9253 3.03007C11.0455 3.40754 11.4185 3.66301 11.7714 3.67318H13.4857C13.7697 3.67318 14 3.935 14 4.25797C14 4.58094 13.7697 4.84276 13.4857 4.84276H2.51429C2.23025 4.84276 2 4.58094 2 4.25797Z" fill="#FB3748"/>
<path fill-rule="evenodd" clip-rule="evenodd" d="M6.2836 7.655C6.55837 7.62606 6.80338 7.83713 6.83085 8.12633L7.16418 11.6351C7.19165 11.9243 6.99118 12.1823 6.71645 12.2112C6.44167 12.2401 6.19664 12.0291 6.16917 11.7399L5.83583 8.23106C5.80835 7.94186 6.00883 7.68393 6.2836 7.655Z" fill="#FB3748"/>
<path fill-rule="evenodd" clip-rule="evenodd" d="M9.71649 7.655C9.99122 7.68393 10.1917 7.94186 10.1642 8.23106L9.83089 11.7399C9.80342 12.0291 9.55842 12.2401 9.28362 12.2112C9.00889 12.1823 8.80842 11.9243 8.83589 11.6351L9.16922 8.12633C9.19669 7.83713 9.44169 7.62606 9.71649 7.655Z" fill="#FB3748"/>
<path opacity="0.5" d="M7.73038 14.6677H8.26958C10.1247 14.6677 11.0523 14.6677 11.6554 14.0771C12.2585 13.4865 12.3202 12.5177 12.4436 10.58L12.6214 7.78811C12.6884 6.73678 12.7218 6.21114 12.4192 5.87803C12.1167 5.54492 11.6058 5.54492 10.584 5.54492H5.41601C4.39416 5.54492 3.88323 5.54492 3.58068 5.87803C3.27813 6.21114 3.31161 6.73678 3.37857 7.78811L3.55637 10.58C3.67978 12.5177 3.74148 13.4865 4.34457 14.0771C4.94767 14.6677 5.87524 14.6677 7.73038 14.6677Z" fill="#FB3748"/>
</svg>
