<svg width="25" height="24" viewBox="0 0 25 24" fill="none" xmlns="http://www.w3.org/2000/svg">
<path fill-rule="evenodd" clip-rule="evenodd" d="M4.5 4.69531V18.6953C4.5 20.3522 5.84315 21.6953 7.5 21.6953H17.5C19.1569 21.6953 20.5 20.3522 20.5 18.6953V8.69531C20.5 7.03845 19.1569 5.69531 17.5 5.69531H5.5C4.94772 5.69531 4.5 5.24759 4.5 4.69531ZM7.75 11.6953C7.75 11.2811 8.08579 10.9453 8.5 10.9453H16.5C16.9142 10.9453 17.25 11.2811 17.25 11.6953C17.25 12.1095 16.9142 12.4453 16.5 12.4453H8.5C8.08579 12.4453 7.75 12.1095 7.75 11.6953ZM7.75 15.1953C7.75 14.7811 8.08579 14.4453 8.5 14.4453H14C14.4142 14.4453 14.75 14.7811 14.75 15.1953C14.75 15.6095 14.4142 15.9453 14 15.9453H8.5C8.08579 15.9453 7.75 15.6095 7.75 15.1953Z" fill="#808080"/>
<path opacity="0.5" d="M18.5 4.00038V5.86504C18.1872 5.75449 17.8506 5.69434 17.5 5.69434H5.5C4.94772 5.69434 4.5 5.24662 4.5 4.69434V4.62329C4.5 4.09027 4.89193 3.63837 5.41959 3.56299L16.2172 2.02048C17.422 1.84835 18.5 2.78328 18.5 4.00038Z" fill="#808080"/>
</svg>
