<svg width="24" height="24" viewBox="0 0 24 24" fill="none" xmlns="http://www.w3.org/2000/svg">
<path fill-rule="evenodd" clip-rule="evenodd" d="M5 3H19L8.81562 13.1844C8.65593 12.7689 8.39992 12.4122 8.03751 12.0976C7.80967 11.8998 7.49146 11.7206 6.85504 11.3624L3.94202 9.72255C2.99347 9.18858 2.5192 8.9216 2.2596 8.49142C2 8.06124 2 7.54232 2 6.50448V5.81466C2 4.48782 2 3.8244 2.43934 3.4122C2.87868 3 3.58579 3 5 3Z" fill="#216BF4"/>
<path opacity="0.5" d="M22.0008 6.50448V5.81466C22.0008 4.48782 22.0008 3.8244 21.5615 3.4122C21.1221 3 20.415 3 19.0008 3L8.81641 13.1844C8.86579 13.3129 8.90596 13.447 8.93723 13.5872C9.00079 13.8722 9.00079 14.2058 9.00079 14.8729V17.5424C9.00079 18.452 9.00079 18.9067 9.25271 19.2613C9.50464 19.6158 9.95207 19.7907 10.847 20.1406C12.7256 20.875 13.6649 21.2422 14.3329 20.8244C15.0008 20.4066 15.0008 19.4519 15.0008 17.5424V14.8729C15.0008 14.2058 15.0008 13.8722 15.0644 13.5872C15.1967 12.9935 15.4888 12.5095 15.9633 12.0976C16.1911 11.8998 16.5093 11.7206 17.1458 11.3624L20.0588 9.72255C21.0073 9.18858 21.4816 8.9216 21.7412 8.49142C22.0008 8.06124 22.0008 7.54232 22.0008 6.50448Z" fill="#216BF4"/>
</svg>
