<svg width="24" height="25" viewBox="0 0 24 25" fill="none" xmlns="http://www.w3.org/2000/svg">
<path opacity="0.5" d="M2 12.5C2 7.78595 2 5.42893 3.46447 3.96447C4.92893 2.5 7.28595 2.5 12 2.5C16.714 2.5 19.0711 2.5 20.5355 3.96447C22 5.42893 22 7.78595 22 12.5C22 17.214 22 19.5711 20.5355 21.0355C19.0711 22.5 16.714 22.5 12 22.5C7.28595 22.5 4.92893 22.5 3.46447 21.0355C2 19.5711 2 17.214 2 12.5Z" fill="#216BF4"/>
<path d="M14.5 11.25C14.0858 11.25 13.75 10.9142 13.75 10.5C13.75 10.0858 14.0858 9.75 14.5 9.75H17C17.4142 9.75 17.75 10.0858 17.75 10.5V13C17.75 13.4142 17.4142 13.75 17 13.75C16.5858 13.75 16.25 13.4142 16.25 13V12.3107L14.2374 14.3232C13.554 15.0066 12.446 15.0066 11.7626 14.3232L10.1768 12.7374C10.0791 12.6398 9.92085 12.6398 9.82322 12.7374L7.53033 15.0303C7.23744 15.3232 6.76256 15.3232 6.46967 15.0303C6.17678 14.7374 6.17678 14.2626 6.46967 13.9697L8.76256 11.6768C9.44598 10.9934 10.554 10.9934 11.2374 11.6768L12.8232 13.2626C12.9209 13.3602 13.0791 13.3602 13.1768 13.2626L15.1893 11.25H14.5Z" fill="#216BF4"/>
</svg>
