<svg width="25" height="24" viewBox="0 0 25 24" fill="none" xmlns="http://www.w3.org/2000/svg">
<path fill-rule="evenodd" clip-rule="evenodd" d="M16.625 12C16.625 11.5858 16.2892 11.25 15.875 11.25H4.90244L6.86309 9.56945C7.17759 9.29989 7.21401 8.82641 6.94444 8.51192C6.67488 8.19742 6.2014 8.161 5.88691 8.43057L2.38691 11.4306C2.22067 11.573 2.125 11.7811 2.125 12C2.125 12.2189 2.22067 12.427 2.38691 12.5694L5.88691 15.5694C6.2014 15.839 6.67488 15.8026 6.94444 15.4881C7.21401 15.1736 7.17759 14.7001 6.86309 14.4306L4.90244 12.75H15.875C16.2892 12.75 16.625 12.4142 16.625 12Z" fill="white"/>
<path d="M9.875 8C9.875 8.70219 9.875 9.05329 10.0435 9.3055C10.1165 9.41471 10.2102 9.50848 10.3195 9.58145C10.5717 9.74996 10.9228 9.74996 11.625 9.74996H15.875C17.1176 9.74996 18.125 10.7573 18.125 12C18.125 13.2426 17.1176 14.25 15.875 14.25H11.625C10.9228 14.25 10.5716 14.25 10.3194 14.4185C10.2102 14.4915 10.1165 14.5852 10.0435 14.6944C9.875 14.9466 9.875 15.2977 9.875 16C9.875 18.8284 9.875 20.2426 10.7537 21.1213C11.6324 22 13.0464 22 15.8748 22H16.8748C19.7032 22 21.1174 22 21.9961 21.1213C22.8748 20.2426 22.8748 18.8284 22.8748 16V8C22.8748 5.17158 22.8748 3.75736 21.9961 2.87868C21.1174 2 19.7032 2 16.8748 2H15.8748C13.0464 2 11.6324 2 10.7537 2.87868C9.875 3.75736 9.875 5.17157 9.875 8Z" fill="white"/>
</svg>
