<svg width="16" height="16" viewBox="0 0 16 16" fill="none" xmlns="http://www.w3.org/2000/svg">
<path opacity="0.5" d="M13.899 5.80875C14.9228 4.78494 14.9228 3.12503 13.899 2.10123C12.8752 1.07742 11.2152 1.07742 10.1914 2.10123L9.6001 2.69259C9.60816 2.71704 9.61656 2.74183 9.6253 2.76694C9.84203 3.39171 10.251 4.21072 11.0204 4.98006C11.7897 5.7494 12.6087 6.15837 13.2335 6.37512C13.2585 6.3838 13.2832 6.39216 13.3075 6.40022L13.899 5.80875Z" fill="#216BF4"/>
<path d="M9.62589 2.66663L9.60043 2.69209C9.60849 2.71654 9.61689 2.74133 9.62563 2.76645C9.84236 3.39121 10.2514 4.21021 11.0207 4.97956C11.79 5.7489 12.609 6.15787 13.2338 6.37462C13.2586 6.38322 13.283 6.39151 13.3072 6.39951L7.60023 12.1065C7.2155 12.4912 7.02303 12.6836 6.81096 12.8491C6.56071 13.0443 6.28996 13.2116 6.00348 13.3482C5.76063 13.4639 5.5025 13.5499 4.98628 13.722L2.26406 14.6294C2.01002 14.7141 1.72994 14.648 1.54058 14.4586C1.35123 14.2692 1.28512 13.9892 1.3698 13.7352L2.2772 11.0129C2.44928 10.4967 2.53532 10.2386 2.65106 9.99569C2.78759 9.70923 2.95492 9.43849 3.1501 9.18823C3.31554 8.97616 3.50793 8.78376 3.89266 8.39903L9.62589 2.66663Z" fill="#216BF4"/>
</svg>
