<svg width="25" height="24" viewBox="0 0 25 24" fill="none" xmlns="http://www.w3.org/2000/svg">
<g id="Bold Duotone / Users / Users Group Rounded">
<path id="Vector" opacity="0.4" d="M15.5 9C17.1569 9 18.5 7.65685 18.5 6C18.5 4.34315 17.1569 3 15.5 3C13.8431 3 12.5 4.34315 12.5 6C12.5 7.65685 13.8431 9 15.5 9Z" fill="black" fill-opacity="1"/>
<path id="Vector_2" opacity="0.4" d="M16.5 20C19.2614 20 21.5 18.6569 21.5 17C21.5 15.3431 19.2614 14 16.5 14C13.7386 14 11.5 15.3431 11.5 17C11.5 18.6569 13.7386 20 16.5 20Z" fill="black" fill-opacity="1"/>
<path id="Vector_3" d="M9.50098 10C11.7101 10 13.501 8.20914 13.501 6C13.501 3.79086 11.7101 2 9.50098 2C7.29184 2 5.50098 3.79086 5.50098 6C5.50098 8.20914 7.29184 10 9.50098 10Z" fill="black" fill-opacity="1"/>
<path id="Vector_4" d="M9.50098 21.001C13.367 21.001 16.501 19.2101 16.501 17.001C16.501 14.7918 13.367 13.001 9.50098 13.001C5.63498 13.001 2.50098 14.7918 2.50098 17.001C2.50098 19.2101 5.63498 21.001 9.50098 21.001Z" fill="black" fill-opacity="1"/>
</g>
</svg>
