<svg width="65" height="64" viewBox="0 0 65 64" fill="none" xmlns="http://www.w3.org/2000/svg">
<path opacity="0.5" d="M9.73825 54.7615C13.6435 58.6667 19.9289 58.6667 32.4997 58.6667C45.0705 58.6667 51.3559 58.6667 55.2611 54.7615C59.1663 50.8562 59.1663 44.5708 59.1663 32C59.1663 19.4293 59.1663 13.1439 55.2611 9.23862C51.3559 5.33337 45.0705 5.33337 32.4997 5.33337C19.9289 5.33337 13.6435 5.33337 9.73825 9.23862C5.83301 13.1439 5.83301 19.4293 5.83301 32C5.83301 44.5708 5.83301 50.8562 9.73825 54.7615Z" fill="#003AFF" fill-opacity="0.2"/>
<path d="M50.0494 25.2648C50.7479 24.4092 50.6205 23.1493 49.7648 22.4508C48.9092 21.7522 47.6493 21.8796 46.9508 22.7353L33.1705 39.6157C32.6026 39.4141 31.9505 39.4705 31.4069 39.8252C30.4819 40.4289 30.2215 41.6682 30.8252 42.5932L31.5867 43.7599C31.9354 44.2941 32.5181 44.63 33.1552 44.6639C33.7923 44.6978 34.4074 44.4257 34.8108 43.9315L50.0494 25.2648Z" fill="#003AFF"/>
<path d="M39.3827 25.2648C40.0812 24.4091 39.9538 23.1492 39.0981 22.4507C38.2425 21.7522 36.9826 21.8796 36.2841 22.7353L22.5953 39.5041L18.0494 33.9353C17.3509 33.0796 16.091 32.9522 15.2353 33.6507C14.3796 34.3492 14.2522 35.6091 14.9507 36.4648L21.046 43.9315C21.4258 44.3968 21.9947 44.6667 22.5953 44.6667C23.1959 44.6667 23.7648 44.3968 24.1446 43.9315L39.3827 25.2648Z" fill="#003AFF"/>
</svg>
