<svg width="16" height="16" viewBox="0 0 16 16" fill="none" xmlns="http://www.w3.org/2000/svg">
<path d="M7.9999 0.5C4.8249 0.5 2.1249 2.475 1.0249 5.25H14.9749C13.8749 2.475 11.1749 0.5 7.9999 0.5Z" fill="#42ADE2"/>
<path d="M7.9999 15.5C11.1749 15.5 13.8749 13.525 14.9749 10.75H1.0249C2.1249 13.525 4.8249 15.5 7.9999 15.5Z" fill="#83BF4F"/>
<path d="M15.5 8C15.5 7.225 15.375 6.45 15.15 5.75H0.85C0.625 6.45 0.5 7.225 0.5 8C0.5 8.775 0.625 9.55 0.85 10.25H15.15C15.375 9.55 15.5 8.775 15.5 8Z" fill="white"/>
<path d="M14.9751 5.25C15.0001 5.325 15.0501 5.425 15.0751 5.5C15.1001 5.575 15.1251 5.675 15.1501 5.75" fill="#C94747"/>
<path d="M15.0751 5.5C15.0501 5.425 15.0001 5.325 14.9751 5.25H1.0251C1.0001 5.325 0.950098 5.425 0.925098 5.5C0.900098 5.575 0.875098 5.675 0.850098 5.75H15.1501C15.1251 5.675 15.1001 5.575 15.0751 5.5ZM0.925098 10.5C0.950098 10.575 1.0001 10.675 1.0251 10.75H14.9751C15.0001 10.675 15.0501 10.575 15.0751 10.5C15.1001 10.425 15.1251 10.325 15.1501 10.25H0.850098C0.875098 10.325 0.900098 10.425 0.925098 10.5Z" fill="#C94747"/>
<path d="M5.1 4.325C4.5 4.325 4.025 3.85 4.025 3.25C4.025 2.65 4.5 2.175 5.1 2.175C5.25 2.175 5.375 2.2 5.5 2.25C5.3 2.1 5.025 2 4.75 2C4.05 2 3.5 2.55 3.5 3.25C3.5 3.95 4.05 4.5 4.75 4.5C5.025 4.5 5.3 4.4 5.5 4.25C5.375 4.3 5.25 4.325 5.1 4.325ZM6.175 3.8L6.275 4.075H6.55L6.325 4.225L6.4 4.5L6.175 4.325L5.95 4.5L6.05 4.225L5.825 4.075H6.1L6.175 3.8ZM7.25 3.8L7.325 4.075H7.625L7.4 4.225L7.475 4.5L7.25 4.325L7.025 4.5L7.1 4.225L6.875 4.075H7.15L7.25 3.8ZM8.325 3.8L8.4 4.075H8.675L8.45 4.225L8.55 4.5L8.325 4.325L8.075 4.5L8.175 4.225L7.95 4.075H8.225L8.325 3.8ZM9.375 3.8L9.475 4.075H9.75L9.525 4.225L9.6 4.5L9.375 4.325L9.15 4.5L9.225 4.225L9 4.075H9.3L9.375 3.8ZM10.45 3.8L10.525 4.075H10.825L10.575 4.225L10.675 4.5L10.45 4.325L10.225 4.5L10.3 4.225L10.075 4.075H10.35L10.45 3.8ZM7.25 2.9L7.325 3.175H7.625L7.4 3.325L7.475 3.6L7.25 3.425L7.025 3.6L7.1 3.325L6.875 3.175H7.15L7.25 2.9ZM8.325 2.9L8.4 3.175H8.675L8.45 3.325L8.55 3.6L8.325 3.425L8.075 3.6L8.175 3.325L7.95 3.175H8.225L8.325 2.9ZM9.375 2.9L9.475 3.175H9.75L9.525 3.325L9.6 3.6L9.375 3.425L9.15 3.6L9.225 3.325L9 3.175H9.3L9.375 2.9ZM10.45 2.9L10.525 3.175H10.825L10.575 3.325L10.675 3.6L10.45 3.425L10.225 3.6L10.3 3.325L10.075 3.175H10.35L10.45 2.9ZM8.325 2L8.4 2.275H8.675L8.45 2.425L8.55 2.7L8.325 2.525L8.075 2.7L8.175 2.425L7.95 2.275H8.225L8.325 2ZM9.375 2L9.475 2.275H9.75L9.525 2.425L9.6 2.7L9.375 2.525L9.15 2.7L9.225 2.425L9 2.275H9.3L9.375 2ZM10.45 2L10.525 2.275H10.825L10.575 2.425L10.675 2.7L10.45 2.525L10.225 2.7L10.3 2.425L10.075 2.275H10.35L10.45 2Z" fill="white"/>
</svg>
